<?xml version="1.0" standalone="no"?>
<!DOCTYPE svg PUBLIC "-//W3C//DTD SVG 20010904//EN"
 "http://www.w3.org/TR/2001/REC-SVG-20010904/DTD/svg10.dtd">
<svg version="1.0" xmlns="http://www.w3.org/2000/svg"
 width="1140.000000pt" height="360.000000pt" viewBox="0 0 1140.000000 360.000000"
 preserveAspectRatio="xMidYMid meet">
<metadata>
Created by potrace 1.16, written by Peter Selinger 2001-2019
</metadata>
<g transform="translate(0.000000,360.000000) scale(0.100000,-0.100000)"
fill="#000000" stroke="none">
<path d="M1028 3261 c-91 -59 -248 -182 -290 -228 l-28 -29 55 -54 54 -54 48
45 c58 54 194 160 285 221 37 25 64 49 60 52 -3 4 1 4 9 1 9 -3 23 3 34 15 10
11 13 20 7 20 -7 0 -12 -5 -12 -11 0 -8 -5 -8 -15 1 -8 7 -22 10 -30 6 -9 -3
-13 -2 -10 4 3 5 -6 17 -20 26 -14 9 -24 22 -22 28 11 27 -50 7 -125 -43z"/>
<path d="M1560 2868 c0 -6 8 -20 17 -30 12 -14 14 -21 5 -30 -14 -14 4 -52 20
-42 6 4 8 3 5 -3 -7 -12 46 -87 106 -150 38 -40 57 -47 57 -20 0 7 -4 6 -11
-3 -9 -13 -10 -13 -7 0 1 8 -3 24 -9 36 -7 12 -8 25 -2 35 7 12 9 12 10 -1 1
-8 2 -21 3 -29 2 -22 21 -24 37 -4 12 14 12 16 -1 11 -10 -4 -15 2 -16 18 -2
21 0 22 13 8 12 -11 18 -12 30 -3 20 17 1 26 -52 23 -27 -1 -43 1 -39 7 3 6 0
16 -6 24 -13 16 -45 20 -53 8 -2 -5 -2 -1 0 7 9 30 8 35 -4 33 -7 -2 -18 7
-24 20 -20 37 -56 76 -64 69 -5 -4 -5 1 -2 11 4 9 2 17 -3 17 -6 0 -10 -5 -10
-12z"/>
<path d="M2313 2128 c4 -10 2 -18 -4 -18 -6 0 -7 -6 -2 -12 4 -7 8 -19 9 -26
2 -8 10 -22 18 -31 17 -19 19 -43 10 -108 -7 -52 9 -104 44 -140 57 -59 255
-239 276 -250 46 -26 87 -6 91 46 2 27 0 32 -14 28 -13 -3 -17 2 -17 24 0 16
3 29 8 29 4 0 8 -5 8 -12 0 -6 3 -8 6 -5 4 4 1 13 -6 22 -7 8 -9 15 -5 15 5 0
-3 9 -16 20 -13 11 -27 23 -31 27 -29 30 -197 196 -216 213 -12 11 -28 20 -35
20 -7 0 -21 14 -31 31 -17 28 -19 29 -32 12 -12 -16 -12 -14 -2 14 13 34 7 50
-12 38 -9 -6 -9 -10 1 -17 11 -8 11 -9 -1 -6 -8 3 -20 23 -25 45 -6 23 -14 45
-19 50 -5 5 -7 1 -3 -9z"/>
<path d="M3600 1625 c-23 -188 -73 -351 -161 -527 -27 -54 -50 -98 -52 -98 -2
0 -54 23 -117 51 -274 122 -546 219 -612 219 -15 0 -18 -8 -18 -58 0 -66 -34
-199 -57 -225 -20 -21 -20 -21 42 -36 54 -13 253 -106 423 -197 l104 -56 -48
-50 c-142 -146 -402 -310 -589 -372 -79 -26 -78 -23 -54 -104 14 -44 27 -72
36 -72 23 0 145 46 233 88 492 236 869 687 999 1197 18 72 55 315 49 320 -2 1
-40 5 -84 8 l-82 6 -12 -94z"/>
<path d="M1293 1584 c-26 -31 -28 -43 -11 -79 10 -21 9 -31 -5 -55 -19 -31
-22 -66 -7 -75 17 -10 11 -44 -11 -75 -21 -27 -21 -30 -5 -54 20 -31 20 -50 1
-79 -19 -30 -1 -67 43 -87 l34 -15 -5 -75 c-3 -41 -17 -122 -31 -178 -32 -126
-106 -386 -112 -391 -5 -6 -102 59 -179 120 -89 70 -207 190 -265 268 -25 33
-49 60 -53 61 -5 0 -35 -19 -68 -41 -46 -33 -57 -45 -50 -58 5 -9 47 -61 93
-116 255 -303 598 -505 1003 -592 106 -23 145 -26 330 -27 197 -1 347 13 359
33 3 4 -3 40 -11 80 -15 66 -18 72 -38 67 -103 -26 -341 -34 -491 -16 -84 9
-250 45 -271 58 -8 5 -6 31 8 102 47 225 99 525 99 576 0 39 2 41 39 52 21 7
58 29 82 50 43 38 45 39 101 32 l57 -6 70 144 c39 79 71 145 71 146 0 2 -26 7
-57 10 -155 17 -151 16 -158 43 -8 34 -45 87 -77 112 -14 11 -47 25 -74 32
-27 6 -63 15 -80 20 -17 5 -49 9 -71 9 -27 0 -43 5 -47 15 -3 8 -13 15 -23 14
-16 0 -16 -2 2 -10 15 -7 12 -8 -15 -4 -19 3 -62 8 -95 11 -56 4 -62 2 -82
-22z"/>
</g>
</svg>
